<svg xmlns="http://www.w3.org/2000/svg" viewBox="0 0 1000 1300" width="1000" height="1300">
  <rect width="1000" height="1300" fill="#f6efe2"/>
  <rect width="1000" height="1300" fill="url(#g1)"/>
  <defs>
    <radialGradient id="g1" cx="50%" cy="42%" r="70%">
      <stop offset="0%" stop-color="#fffdf7" stop-opacity="0.9"/>
      <stop offset="100%" stop-color="#e9dfca" stop-opacity="0.2"/>
    </radialGradient>
  </defs>
  <g transform="translate(500 560)" stroke="#2f3a73" fill="none" stroke-width="3.2" stroke-linecap="round" opacity="0.85">
    <path d="M0,-40 C-120,-220 -300,-150 -250,-30 C-300,80 -150,150 -20,90" fill="#9fb0e8" fill-opacity="0.35"/>
    <path d="M0,-40 C120,-220 300,-150 250,-30 C300,80 150,150 20,90" fill="#9fb0e8" fill-opacity="0.35"/>
    <path d="M-20,90 C-150,250 -40,360 0,300 C40,360 150,250 20,90" fill="#7e92dd" fill-opacity="0.4"/>
    <path d="M-250,-30 C-360,-30 -360,90 -250,80" />
    <path d="M250,-30 C360,-30 360,90 250,80" />
    <g stroke="#26306a" stroke-width="2">
      <path d="M0,40 C-30,90 -30,160 0,210"/>
      <path d="M0,40 C30,90 30,160 0,210"/>
      <path d="M0,60 C-50,80 -70,140 -50,190"/>
      <path d="M0,60 C50,80 70,140 50,190"/>
    </g>
    <circle cx="0" cy="50" r="18" fill="#e9b949" stroke="#caa033"/>
  </g>
  <text x="500" y="980" text-anchor="middle" font-family="'Bradley Hand','Segoe Script',cursive" font-size="34" fill="#5a5240" opacity="0.6">the first pansy</text>
</svg>
