<svg xmlns="http://www.w3.org/2000/svg" viewBox="0 0 1000 1300" width="1000" height="1300">
  <rect width="1000" height="1300" fill="#f4ede0"/>
  <g transform="translate(500 600)" stroke="#3a2f5e" fill="none" stroke-width="3" stroke-linecap="round" opacity="0.8">
    <path d="M0,0 C-200,-120 -260,80 -120,140 C-220,260 -40,320 0,200 C40,320 220,260 120,140 C260,80 200,-120 0,0 Z" fill="#b3a4dd" fill-opacity="0.3"/>
    <path d="M0,0 C-90,-180 -260,-120 -210,-10" />
    <path d="M0,0 C90,-180 260,-120 210,-10" />
    <circle cx="0" cy="40" r="14" fill="#e9b949" stroke="#caa033"/>
    <path d="M0,200 C-10,360 -10,520 0,640" stroke="#3f6b3a"/>
    <path d="M0,420 C70,380 140,420 150,490" stroke="#3f6b3a" fill="#8fbf7d" fill-opacity="0.3"/>
  </g>
  <text x="500" y="1010" text-anchor="middle" font-family="'Bradley Hand','Segoe Script',cursive" font-size="34" fill="#5a5240" opacity="0.6">a pansy in the rain</text>
</svg>
